<svg width="327" height="258" viewBox="0 0 327 258" fill="none" xmlns="http://www.w3.org/2000/svg">
<path d="M309.34 14.4644H25.6857V243.699H309.34V14.4644Z" stroke="#EDEDED" stroke-width="2" stroke-linecap="round" stroke-linejoin="round"/>
<path d="M185.446 45.3517H140.214V67.4633L128.672 70.2217L121.773 41.3001L181.103 27.1421L185.446 45.3517Z" stroke="#EDEDED" stroke-miterlimit="10"/>
<path d="M144.497 198.519H118.662V232.359H144.497V198.519Z" fill="#EDEDED"/>
<path d="M103.974 203.699H78.1398V232.351H103.974V203.699Z" stroke="#DDDDDD" stroke-linecap="round" stroke-linejoin="round"/>
<path d="M266.066 110.543H240.232V232.359H266.066V110.543Z" stroke="#DDDDDD" stroke-linecap="round" stroke-linejoin="round"/>
<path d="M225.543 110.543H199.709V232.359H225.543V110.543Z" fill="#EDEDED"/>
<path d="M260.28 25.2211L224.713 48.0204L235.851 54.8902C229.079 65.8339 193.751 111.836 193.751 111.836L153.833 115.574C139.07 143.89 105.177 193.705 105.177 193.705H0.890747V218.642L113.422 217.431L168.313 133.612L206.81 132.722L252.544 63.0232L261.327 66.3347L260.28 25.2211Z" fill="#DDDDDD" stroke="#EDEDED" stroke-linecap="round" stroke-linejoin="round"/>
<path d="M185.02 156.381H159.186V232.359H185.02V156.381Z" stroke="#DDDDDD" stroke-linecap="round" stroke-linejoin="round"/>
<path d="M325.427 243.699H9.60657V256.683H325.427V243.699Z" stroke="#DDDDDD" stroke-width="2" stroke-linecap="round" stroke-linejoin="round"/>
<path d="M161.593 53.7913C161.578 53.742 161.547 53.6991 161.505 53.6693C161.463 53.6396 161.413 53.6246 161.361 53.6268H158.192C158.14 53.6246 158.09 53.6396 158.048 53.6693C158.006 53.6991 157.975 53.742 157.96 53.7913L153.423 66.0207C153.419 66.048 153.419 66.0756 153.423 66.1029V66.1926C153.421 66.2589 153.445 66.3233 153.49 66.372C153.542 66.4168 153.608 66.4408 153.677 66.4393H156.816C156.868 66.4444 156.92 66.4305 156.963 66.4003C157.005 66.3701 157.036 66.3256 157.048 66.2748L157.743 64.4434H161.847L162.527 66.2748C162.54 66.3256 162.57 66.3701 162.613 66.4003C162.655 66.4305 162.707 66.4444 162.759 66.4393H165.914C165.977 66.44 166.039 66.4159 166.086 66.372C166.131 66.3233 166.155 66.2589 166.153 66.1926V66.1029C166.156 66.0781 166.156 66.053 166.153 66.0282L161.593 53.7913ZM158.902 61.2665L159.769 58.8968L160.666 61.2665H158.902Z" fill="#EDEDED"/>
<path d="M176.662 55.1216C176.154 54.6295 175.552 54.2455 174.891 53.9929C174.191 53.7387 173.452 53.6121 172.708 53.6191H167.827C167.793 53.6156 167.758 53.6198 167.726 53.6313C167.693 53.6428 167.664 53.6614 167.639 53.6858C167.615 53.7101 167.596 53.7396 167.585 53.772C167.573 53.8044 167.569 53.839 167.573 53.8733V66.1849C167.571 66.2534 167.595 66.32 167.64 66.3718C167.691 66.4179 167.758 66.4421 167.827 66.4391H172.686C173.43 66.4461 174.169 66.3195 174.868 66.0653C175.529 65.8127 176.132 65.4287 176.64 64.9366C177.195 64.3701 177.61 63.6814 177.851 62.9258C178.429 61.038 178.429 59.0203 177.851 57.1325C177.618 56.3785 177.21 55.6897 176.662 55.1216ZM173.897 62.552C173.645 62.8284 173.336 63.047 172.991 63.1928C172.647 63.3386 172.275 63.4082 171.901 63.3967H171.31C171.294 63.3993 171.277 63.3979 171.262 63.3928C171.246 63.3877 171.232 63.379 171.22 63.3673C171.208 63.3556 171.2 63.3414 171.194 63.3257C171.189 63.31 171.188 63.2934 171.191 63.2771V56.7662C171.191 56.6765 171.235 56.6391 171.31 56.6391H171.901C172.275 56.6256 172.648 56.6943 172.992 56.8402C173.337 56.9861 173.646 57.2058 173.897 57.4838C174.399 58.235 174.667 59.1182 174.667 60.0216C174.667 60.9251 174.399 61.8083 173.897 62.5595V62.552Z" fill="#EDEDED"/>
<path d="M187.718 61.5206C187.554 61.0591 187.3 60.6347 186.971 60.2723C186.667 59.9452 186.32 59.661 185.939 59.4276C185.581 59.2131 185.193 59.0543 184.788 58.9567C184.477 58.8831 184.178 58.7674 183.898 58.6128C183.696 58.5026 183.52 58.3495 183.383 58.1643C183.298 58.0435 183.227 57.913 183.173 57.7756C183.143 57.6838 183.125 57.5882 183.121 57.4915C183.126 57.4047 183.144 57.3191 183.173 57.2374C183.223 57.1213 183.286 57.011 183.36 56.9084C183.472 56.7581 183.629 56.648 183.809 56.5945C184.048 56.5074 184.302 56.4693 184.556 56.4824C185.346 56.4994 186.133 56.5971 186.903 56.7739C186.937 56.7847 186.973 56.7862 187.007 56.7783C187.041 56.7704 187.072 56.7534 187.098 56.729C187.153 56.6869 187.19 56.6255 187.202 56.5571L187.442 54.0604C187.441 53.9958 187.42 53.933 187.382 53.881C187.343 53.8323 187.287 53.8002 187.225 53.7913C186.297 53.687 185.363 53.6321 184.429 53.6268C183.166 53.5541 181.912 53.8839 180.848 54.5687C180.421 54.8799 180.077 55.2933 179.85 55.7712C179.623 56.2491 179.519 56.7763 179.548 57.3046C179.545 57.858 179.641 58.4074 179.832 58.9268C179.998 59.3872 180.252 59.8111 180.579 60.1751C180.883 60.4949 181.228 60.7738 181.603 61.0049C181.959 61.2242 182.348 61.3857 182.755 61.4833C183.068 61.5488 183.368 61.6649 183.644 61.8271C183.85 61.9327 184.027 62.0866 184.16 62.2757C184.241 62.3939 184.306 62.522 184.354 62.6569C184.388 62.7479 184.406 62.844 184.407 62.9409C184.405 63.0306 184.387 63.1192 184.354 63.2026C184.312 63.3232 184.252 63.4367 184.175 63.539C184.061 63.6817 183.908 63.7882 183.734 63.8454C183.495 63.9318 183.24 63.9675 182.986 63.9501C182.231 63.9336 181.48 63.841 180.744 63.6735C180.71 63.6626 180.673 63.6603 180.638 63.6668C180.603 63.6733 180.57 63.6885 180.542 63.7109C180.513 63.7314 180.488 63.758 180.47 63.789C180.452 63.82 180.441 63.8546 180.437 63.8903L180.198 66.387C180.199 66.4516 180.22 66.5144 180.258 66.5664C180.297 66.6151 180.353 66.6472 180.415 66.6561C181.315 66.764 182.222 66.8165 183.128 66.8131C184.848 66.8131 186.094 66.5116 186.866 65.9086C187.265 65.5709 187.578 65.1434 187.779 64.6613C187.98 64.1792 188.065 63.6562 188.025 63.1353C188.022 62.5829 187.918 62.0356 187.718 61.5206Z" fill="#EDEDED"/>
<path d="M325.427 1.47974H9.60657V14.4642H325.427V1.47974Z" stroke="#DDDDDD" stroke-width="2" stroke-linecap="round" stroke-linejoin="round"/>
<path d="M201.204 45.3518H140.206V75.0807H201.204V45.3518Z" stroke="#DDDDDD" stroke-width="2" stroke-linecap="round" stroke-linejoin="round"/>
</svg>
