<svg width="223" height="253" viewBox="0 0 223 253" fill="none" xmlns="http://www.w3.org/2000/svg">
<path d="M121.611 83.7249C119.974 86.4833 118.194 89.2566 116.311 91.9477C111.467 98.8996 106.01 105.403 100.912 110.045C83.6142 125.81 77.8433 109.507 79.4729 102.839C80.7661 97.5092 94.8718 77.7597 102.99 66.8011C105.023 64.0577 106.675 61.8749 107.662 60.5892C112.61 54.2053 118.74 50.8714 126.993 53.3831C134.468 55.6555 130.043 69.5146 121.611 83.7249Z" fill="#021730"/>
<path d="M121.611 83.725C120.264 82.537 119.025 81.2311 117.91 79.823C113.567 74.4109 110.824 68.4457 102.96 66.8086C104.993 64.0652 106.645 61.8825 107.632 60.5967C112.581 54.2129 118.71 50.879 126.963 53.3906C134.468 55.6556 130.043 69.5147 121.611 83.725Z" fill="#021730"/>
<path d="M89.2958 169.892C84.265 187.272 71.9533 221.695 72.1028 222.368C72.1476 222.674 72.4093 226.397 72.6859 230.523C73.0521 235.92 73.4334 242.013 73.4334 242.013C73.4334 242.013 39.2343 252.844 36.304 252.059C33.3738 251.274 33.9344 247.088 38.4494 243.702C39.3988 242.954 40.7817 241.818 42.3739 240.428C48.2943 235.24 57.0702 226.89 57.0702 226.89C57.0702 226.89 64.9116 160.451 66.2049 154.313C67.4981 148.176 72.8727 141.673 80.8862 142.353C89.1762 143.056 94.3042 152.512 89.2958 169.892Z" fill="#FEBD9D"/>
<path d="M73.4256 242.012C73.4256 242.012 39.2265 252.844 36.2962 252.059C33.3659 251.274 33.9266 247.088 38.4416 243.702C39.391 242.954 40.7739 241.818 42.3661 240.428C48.6228 241.721 55.3206 239.62 58.8116 237.011C62.8779 233.851 67.5967 231.634 72.6257 230.523C73.0219 235.913 73.4256 242.012 73.4256 242.012Z" fill="#83ADDF"/>
<path d="M204.802 80.862C204.966 79.5987 204.884 77.8121 201.259 75.8835L200.063 81.3255C200.063 81.3255 204.518 83.0672 204.802 80.862Z" fill="#A7CAF0"/>
<path d="M187.818 75.248C188.977 69.7238 189.485 69.2155 189.313 66.5319C189.141 63.8483 188.805 60.6414 193.238 55.2668C197.671 49.8921 200.287 45.6686 201.162 46.1022C202.036 46.5357 201.453 50.4079 199.779 54.1455C199.779 54.1455 211.552 47.4178 214.026 46.4685C216.501 45.5191 214.901 50.0267 209.952 52.4486C209.952 52.4486 217.734 47.7542 219.625 48.1429C221.517 48.5316 218.026 51.2675 215.335 53.0242C215.335 53.0242 220.433 49.8173 221.442 50.8714C222.451 51.9254 219.64 54.1679 217.293 55.5733C217.293 55.5733 220.35 53.981 220.859 54.7734C221.367 55.5658 220.859 56.4478 217.869 58.3391C214.879 60.2303 208.345 63.4297 203.337 69.1707L202.029 83.3735C202.029 83.3735 190.285 85.2797 187.818 75.248Z" fill="#FEBD9D"/>
<path d="M195.084 53.0019C198.425 48.756 200.444 45.736 201.191 46.1023C202.066 46.5434 201.483 50.408 199.808 54.1456C199.808 54.1456 211.582 47.418 214.056 46.4686C216.53 45.5193 214.931 50.0268 209.982 52.4488C209.982 52.4488 217.764 47.7543 219.655 48.1431C221.546 48.5318 218.055 51.2677 215.364 53.0244C215.364 53.0244 220.462 49.8175 221.471 50.8715C222.481 51.9255 219.67 54.1681 217.323 55.5734C217.323 55.5734 220.38 53.9812 220.888 54.7736C221.397 55.5659 220.888 56.448 217.898 58.3392" stroke="#EF8A66" stroke-width="0.75" stroke-linecap="round" stroke-linejoin="round"/>
<path d="M200.684 63.5495C201.192 59.5502 203.861 58.2271 206.111 57.644" stroke="#EF8A66" stroke-width="0.75" stroke-linecap="round" stroke-linejoin="round"/>
<path d="M205.886 53.7045C209.1 53.8465 212.471 56.8141 212.688 57.9055" stroke="#EF8A66" stroke-width="0.75" stroke-linecap="round" stroke-linejoin="round"/>
<path d="M207.486 53.9886C207.531 53.9886 211.897 51.2975 211.897 51.2975" stroke="#EF8A66" stroke-width="0.75" stroke-linecap="round" stroke-linejoin="round"/>
<path d="M216.172 52.4563L210.686 55.6482" stroke="#EF8A66" stroke-width="0.75" stroke-linecap="round" stroke-linejoin="round"/>
<path d="M217.958 55.1547L213.81 57.4795" stroke="#EF8A66" stroke-width="0.75" stroke-linecap="round" stroke-linejoin="round"/>
<path d="M178.116 128.681C183.685 134.295 194.329 130.886 198.097 115.973C201.864 101.06 204.825 80.8397 204.825 80.8397C198.628 79.4773 192.844 76.6586 187.953 72.6169C182.511 87.3954 170.887 121.385 178.116 128.681Z" fill="#021730"/>
<path d="M187.931 72.6243C184.335 82.4392 177.989 100.731 176.262 114.052" stroke="#83ADDF" stroke-width="0.75" stroke-linecap="round" stroke-linejoin="round"/>
<path d="M69.0225 147.033C65.853 162.656 60.3363 175.207 54.5505 188.819C48.7647 202.431 42.8294 219.467 42.8294 222.121V234.164C42.8294 234.164 4.21249 240.727 2.46329 240.727C0.714092 240.727 -0.526792 236.989 3.21081 234.321C4.14521 233.663 6.04392 232.227 8.37618 230.448C15.4627 225.066 26.5036 216.492 26.5036 216.492C26.5036 216.492 39.7272 161.407 42.7696 143.676C47.7331 115.054 73.3058 125.855 69.0225 147.033Z" fill="#FEBD9D"/>
<path d="M63.8946 165.519C65.2177 161.714 66.4287 157.812 67.4752 153.716C73.2535 154.897 80.183 155.876 88.8543 157.416" stroke="#EF8A66" stroke-width="0.75" stroke-linecap="round" stroke-linejoin="round"/>
<path d="M42.8294 223.085V234.149C42.8294 234.149 4.21248 240.712 2.46329 240.712C0.714088 240.712 -0.526796 236.974 3.21081 234.306C4.14521 233.648 6.04391 232.213 8.37618 230.434C15.3879 232.041 23.663 229.372 28.1331 227.361C32.8003 225.235 37.7502 223.795 42.8294 223.085Z" fill="#83ADDF"/>
<path d="M86.6039 116.87C93.8658 116.87 99.7528 111.599 99.7528 105.096C99.7528 98.594 93.8658 93.3229 86.6039 93.3229C79.342 93.3229 73.455 98.594 73.455 105.096C73.455 111.599 79.342 116.87 86.6039 116.87Z" fill="#021730"/>
<path d="M170.17 59.4303C169.689 59.7325 169.19 60.0046 168.675 60.2451C160.535 64.1546 156.184 63.0259 155.369 59.1762C154.554 55.3264 146.033 58.2268 145.532 51.4244C145.031 44.6219 148.051 42.4018 147.483 38.9333C147.483 38.9333 147.879 38.0363 148.485 36.9748C149.763 34.7322 151.99 31.8543 153.65 34.792C156.109 39.1426 157.634 38.6791 162.172 39.1875C166.709 39.6958 168.795 42.8428 167.404 45.1153C165.715 47.8811 166.612 49.0771 171.568 49.5331C176.023 49.9443 176.703 55.5133 170.17 59.4303Z" fill="#DD6819"/>
<path d="M170.17 59.4304C169.689 59.7326 169.19 60.0047 168.675 60.2452C160.535 64.1547 156.184 63.026 155.369 59.1762C154.554 55.3265 146.033 58.2269 145.532 51.4244C145.031 44.622 148.051 42.4019 147.483 38.9334C147.483 38.9334 147.879 38.0363 148.485 36.9749C154.465 38.8138 156.169 41.9533 155.586 44.6668C154.838 48.1204 157.881 52.6578 165.438 52.0374C169.228 51.7234 170.178 55.5582 170.17 59.4304Z" fill="#CC5E0D"/>
<path d="M165.938 156.16C163.009 160.225 159.066 163.451 154.501 165.518C154.501 165.518 154.501 164.397 154.24 162.528C153.365 155.337 149.642 137.113 133.952 127.956L132.853 127.754H132.756L124.952 126.304C124.952 126.304 122.919 118.186 121.453 111.824C119.988 105.463 116.415 99.7816 116.281 93.0688C116.281 92.6951 116.281 92.3213 116.281 91.955C116.333 87.5895 117.252 83.4183 117.88 79.8228C118.161 78.3407 118.351 76.8429 118.448 75.3376C118.658 70.718 115.017 65.5451 114.666 62.3233C114.315 59.1015 114.666 52.314 123.135 53.0316C124.518 53.1438 125.782 53.2559 126.963 53.368C128.144 53.4801 129.4 53.6222 130.469 53.7567C130.85 53.8016 131.216 53.8614 131.59 53.9212C133.088 54.123 134.569 54.4328 136.023 54.8481C137.188 55.1823 138.312 55.6488 139.371 56.2385C142.653 58.0699 150.166 55.7302 151.085 55.4386H151.175C152.804 55.334 154.247 55.2144 155.533 55.1022C156.819 54.9901 157.888 54.9004 158.859 54.8032C161.715 54.5042 163.397 54.2576 164.271 54.1529C164.787 54.1529 165.527 61.1721 166.32 70.5984C166.753 75.7263 167.194 81.5645 167.628 87.3727C168.51 99.4452 169.34 111.406 169.825 116.526C169.9 117.356 169.975 118.021 170.027 118.462C170.805 123.926 175.372 142.854 165.938 156.16Z" fill="#021730"/>
<path d="M166.357 70.5908C163.992 72.0445 161.763 73.7082 159.696 75.5618C151.354 82.8726 145.366 91.3644 132.786 88.9424C128.664 88.2442 124.81 86.4351 121.64 83.7098C120.293 82.5218 119.055 81.2159 117.94 79.8077C118.22 78.3257 118.41 76.8278 118.508 75.3226C118.717 70.7029 115.077 65.5301 114.726 62.3083C114.374 59.0865 114.725 52.299 123.195 53.0166C124.578 53.1287 125.841 53.2409 127.022 53.353C128.203 53.4651 129.459 53.6072 130.528 53.7417C132.406 53.9561 134.263 54.321 136.082 54.8331C137.248 55.1673 138.371 55.6338 139.431 56.2235C142.713 58.0549 150.225 55.7152 151.145 55.4236H151.234C154.434 55.2068 156.953 54.9826 158.919 54.7882C161.774 54.4892 163.456 54.2425 164.331 54.1379C164.824 54.1454 165.564 61.1646 166.357 70.5908Z" fill="#071A2A"/>
<path d="M147.012 108.729C148.018 116.145 149.488 123.49 151.415 130.721L132.854 127.731H132.756C132.756 127.731 132.233 115.771 128.712 104.827C126.877 99.0494 126.117 92.9838 126.47 86.9316C126.807 81.8785 127.64 76.8709 128.959 71.9812C130.36 66.0714 131.245 60.0512 131.605 53.9884C132.457 54.108 133.242 54.2426 133.982 54.3995L134.491 54.5117C135.039 54.6313 135.555 54.7658 136.038 54.9153C137.204 55.2496 138.327 55.7161 139.387 56.3057C142.669 58.1371 150.181 55.7974 151.101 55.5059H151.19C152.207 55.4311 153.156 55.3713 154.031 55.2966L154.554 55.2517L155.548 55.1695C154.143 59.4827 148.327 77.3858 146.429 86.827C146.227 87.8735 146.062 88.8154 145.958 89.6152C145.412 93.9209 145.98 101.269 147.012 108.729Z" fill="white"/>
<path d="M155.6 55.0947C154.195 59.4079 148.379 77.311 146.48 86.7522C142.364 89.1996 137.468 89.983 132.793 88.9424C130.624 88.5385 128.517 87.8577 126.521 86.9166C126.858 81.8635 127.692 76.8559 129.011 71.9662C130.411 66.0564 131.297 60.0362 131.657 53.9734C132.509 54.093 133.294 54.2275 134.034 54.3845L134.542 54.4967C135.09 54.6163 135.606 54.7508 136.09 54.9003C137.255 55.2346 138.379 55.7011 139.439 56.2907C142.72 58.1221 150.233 55.7824 151.152 55.4909H151.242C152.259 55.4161 153.208 55.3563 154.082 55.2815L154.606 55.2367L155.6 55.0947Z" fill="#F9F9F9"/>
<path d="M154.913 76.7729L159.248 86.6626C158.007 88.778 150.353 102.66 147.011 108.729C145.98 101.254 145.412 93.921 145.972 89.5405C147.011 81.4225 154.001 59.8864 155.563 55.0948C156.819 54.9976 157.918 54.893 158.889 54.7958L160.22 73.5735C159.248 74.2164 154.913 76.7729 154.913 76.7729Z" fill="#48678C"/>
<path d="M128.974 71.9363C127.382 78.3725 124.227 90.8486 128.712 104.827C124.959 99.3597 122.287 93.2243 120.841 86.7522L125.7 75.8832L123.218 72.624C123.218 72.624 125.916 65.1488 130.469 53.7791C130.85 53.8239 131.216 53.8837 131.59 53.9435C131.24 60.0055 130.364 66.0256 128.974 71.9363Z" fill="#48678C"/>
<path d="M153.47 54.2651C155.286 53.7269 156.796 54.2651 156.759 55.0126C156.669 57.0085 153.186 69.0585 151.683 69.6715C151.406 69.7836 149.68 64.237 147.721 63.5642C145.763 62.8915 142.145 63.8109 142.227 63.7661C142.309 63.7212 149.56 53.0093 153.47 54.2651Z" fill="#683F1D"/>
<path d="M136.165 53.8314C139.238 57.9727 138.819 61.0824 137.698 61.2244C136.576 61.3664 135.208 61.2618 133.855 62.6821C132.502 64.1024 130.357 66.4197 130.193 66.1207C129.393 64.6256 130.753 54.9079 131.351 53.8987C132.091 52.6578 135.336 52.7102 136.165 53.8314Z" fill="#683F1D"/>
<path d="M138.535 68.3333C138.161 76.2345 136.33 79.262 135.223 84.1358C134.117 89.0097 135.096 95.6476 136.883 103.295C138.669 110.942 138.572 115.061 138.535 115.898C138.497 116.735 136.733 121.534 140.598 123.373" stroke="#DDDDDD" stroke-linecap="round" stroke-linejoin="round"/>
<path d="M153.477 54.2649C153.477 54.2649 141.599 66.3972 138.819 64.5957C136.038 62.7941 134.969 55.9095 135.275 53.5996C135.387 52.8521 135.597 51.4318 135.828 49.862C136.314 46.7075 136.92 42.8652 137.024 42.0355C137.346 35.3078 148.379 29.5145 151.534 36.9673C151.078 42.8043 151.738 48.6747 153.477 54.2649Z" fill="#FEBD9D"/>
<path d="M135.828 49.8321C136.314 46.6775 136.919 42.8353 137.024 42.0055L144.208 39.5013C144.963 45.6385 141.846 49.1219 135.828 49.8321Z" fill="#F4A789"/>
<path d="M116.31 91.9551C116.363 87.5896 117.282 83.4184 117.91 79.8228C118.191 78.3407 118.38 76.8429 118.478 75.3377C118.575 73.0951 117.791 70.7703 116.901 68.5726" stroke="#83ADDF" stroke-width="0.75" stroke-linecap="round" stroke-linejoin="round"/>
<path d="M153.844 131.26C149.269 130.168 133.952 127.963 133.952 127.963" stroke="#83ADDF" stroke-width="0.75" stroke-linecap="round" stroke-linejoin="round"/>
<path d="M59.2675 124.412C51.2615 124.412 39.3012 137.314 47.5538 144.797C56.9277 153.267 67.5201 153.633 88.8543 157.423C88.8543 157.423 99.7457 124.435 59.2675 124.412Z" fill="#FEBD9D"/>
<path d="M154.24 162.506C144.769 164.749 124.586 162.925 112.491 161.579C109.337 161.22 106.728 160.906 105.016 160.704C103.685 160.547 102.878 160.458 102.773 160.473C79.2789 162.655 76.3636 157.52 66.4514 144.827C56.5393 132.134 59.1332 125.19 59.2678 124.412C77.6119 122.917 109.053 124.293 124.982 126.304L133.953 127.933C137.855 130.212 141.293 133.204 144.089 136.754C151.422 145.986 153.597 157.221 154.24 162.506Z" fill="#1A56E1"/>
<path d="M89.2948 156.899C96.9046 159.142 104.993 160.704 104.993 160.704" stroke="#1048CA" stroke-width="0.75" stroke-linecap="round" stroke-linejoin="round"/>
<path d="M154.24 162.506C144.769 164.749 124.586 162.925 112.491 161.579C118.142 157.393 124.145 157.557 130.82 158.806C144.575 161.37 147.199 156.444 143.894 151.203C140.994 146.584 139.753 140.05 144.089 136.754C151.422 145.986 153.597 157.221 154.24 162.506Z" fill="#1A4EC7"/>
<path d="M187.744 130.206C179.409 134.489 173.676 125.25 169.893 116.534C169.146 114.777 168.443 113.058 167.838 111.458C165.251 104.73 161.11 88.9055 159.727 75.5772C158.591 64.7306 159.338 55.5062 164.302 54.1458C170.215 52.5236 176.778 55.14 180.635 66.1509C181.4 68.3953 182.004 70.6909 182.444 73.0207C185.995 91.2527 196.415 125.743 187.744 130.206Z" fill="#021730"/>
<path d="M169.863 116.534C169.116 114.777 168.413 113.058 167.808 111.458C165.797 106.225 162.822 95.4611 160.968 84.6594" stroke="#83ADDF" stroke-width="0.75" stroke-linecap="round" stroke-linejoin="round"/>
<path d="M180.642 66.1509C175.59 66.446 170.686 67.9702 166.357 70.5912C163.992 72.0449 161.763 73.7086 159.697 75.5622C158.59 64.7307 159.338 55.5062 164.301 54.1458C170.222 52.5236 176.785 55.14 180.642 66.1509Z" fill="#071A2B"/>
<path d="M154.681 30.509C151.818 36.0032 129.855 29.7615 129.855 29.7615C126.29 28.7224 124.503 27.3171 124.623 25.1567C124.742 22.9964 128.099 22.9142 127.232 20.8585C126.794 19.8556 126.54 18.7819 126.484 17.689C126.424 15.7155 127.164 13.4506 130.057 11.6191C135.14 8.38984 142.122 12.7255 142.122 12.7255C142.122 12.7255 145.314 10.0568 151.093 13.0245C154.015 14.5195 155.63 17.5843 156.131 20.9482C156.623 24.2084 156.118 27.5413 154.681 30.509Z" fill="#DD6819"/>
<path d="M154.681 30.5089C151.818 36.0032 129.855 29.7614 129.855 29.7614C126.29 28.7223 124.503 27.317 124.623 25.1566C124.742 22.9963 128.099 22.9141 127.232 20.8584C126.794 19.8556 126.54 18.7818 126.484 17.6889C131.216 12.6955 142.033 12.0825 143.199 16.7396C144.529 22.0395 147.048 30.4566 156.138 20.9481C156.628 24.2091 156.12 27.542 154.681 30.5089Z" fill="#CC5E0D"/>
<path d="M141.353 15.5585C145.494 12.7479 149.344 14.8708 150.42 17.9655C151.982 22.4507 146.682 27.1526 151.982 31.1518" stroke="#FF79A0" stroke-width="0.75" stroke-linecap="round" stroke-linejoin="round"/>
<path d="M129.28 18.5112C129.654 14.3101 136.142 10.2885 142.138 12.6955" stroke="#FF79A0" stroke-width="0.75" stroke-linecap="round" stroke-linejoin="round"/>
<path d="M151.534 36.9375C151.534 36.9375 145.516 42.7831 138.96 44.6669C132.405 46.5506 127 42.6411 127.523 33.3644C127.523 33.2074 127.523 33.0504 127.523 32.9009C127.613 31.7722 127.748 30.6584 127.927 29.6118C129.31 21.6134 133.466 15.8275 140.366 17.9954C142.481 18.6532 140.5 26.1209 141.921 29.4848C142.004 29.6921 142.109 29.89 142.235 30.0753C142.707 30.7649 143.337 31.3314 144.073 31.7273C146.406 33.0205 149.59 32.729 150.614 30.7555C152.109 27.9 156.176 26.5171 157.589 31.3236C158.643 34.7697 154.853 37.8944 151.534 36.9375Z" fill="#FEBD9D"/>
<path d="M144.103 31.7273C143.439 32.5203 142.566 33.113 141.584 33.4391C139.648 34.1866 137.779 33.94 137.413 32.9607C137.047 31.9815 138.325 30.5985 140.269 29.8809C140.809 29.673 141.375 29.5397 141.951 29.4847C142.034 29.6921 142.139 29.89 142.265 30.0753C142.737 30.7649 143.367 31.3314 144.103 31.7273Z" fill="#F4AF90"/>
<path d="M129.519 32.9161C129.183 33.4095 128.435 33.544 127.523 33.3646C127.523 33.2076 127.523 33.0507 127.523 32.9011C127.613 31.7724 127.748 30.6586 127.927 29.6121C129.355 30.7259 130.043 32.1312 129.519 32.9161Z" fill="#F4AF90"/>
<path d="M130.737 27.6831C130.737 27.8473 130.786 28.0077 130.877 28.1441C130.968 28.2806 131.098 28.3869 131.25 28.4497C131.401 28.5125 131.568 28.529 131.729 28.4969C131.89 28.4649 132.038 28.3859 132.154 28.2699C132.27 28.1538 132.349 28.006 132.381 27.845C132.413 27.6841 132.396 27.5172 132.334 27.3656C132.271 27.214 132.164 27.0844 132.028 26.9932C131.892 26.9021 131.731 26.8534 131.567 26.8534C131.347 26.8534 131.136 26.9408 130.98 27.0964C130.825 27.252 130.737 27.4631 130.737 27.6831Z" fill="#683F1D"/>
<path d="M135.335 28.9466C135.335 29.1666 135.422 29.3777 135.578 29.5333C135.734 29.6889 135.945 29.7763 136.165 29.7763C136.385 29.7763 136.596 29.6889 136.751 29.5333C136.907 29.3777 136.994 29.1666 136.994 28.9466C136.994 28.7265 136.907 28.5155 136.751 28.3598C136.596 28.2042 136.385 28.1168 136.165 28.1168C135.945 28.1168 135.734 28.2042 135.578 28.3598C135.422 28.5155 135.335 28.7265 135.335 28.9466Z" fill="#683F1D"/>
<path d="M151.683 33.4767C152.572 31.2341 154.531 30.1726 156.003 31.2341" stroke="#EF8A66" stroke-width="0.75" stroke-linecap="round" stroke-linejoin="round"/>
<path d="M151.982 32.8338C154.36 31.0173 156.004 35.0764 152.192 35.0764" stroke="#EF8A66" stroke-width="0.75" stroke-linecap="round" stroke-linejoin="round"/>
<path d="M128.532 23.6691C128.308 24.753 132.95 26.2331 133.391 24.0653C133.705 22.503 128.779 22.503 128.532 23.6691Z" fill="#DD6819"/>
<path d="M136.202 24.3644C135.694 26.2481 140.972 27.2348 141.54 25.964C142.026 24.8876 136.771 22.2264 136.202 24.3644Z" fill="#DD6819"/>
<path d="M131.403 32.7665C130.379 31.1518 130.917 29.9558 132.263 29.9558C133.922 29.9558 134.46 28.4607 134.386 26.3677" stroke="#EF8A66" stroke-width="0.75" stroke-linecap="round" stroke-linejoin="round"/>
<path d="M131.373 34.4111C133.503 34.6727 136.337 33.3571 136.337 33.3571C136.337 33.3571 136.202 37.0947 133.855 37.4236C131.508 37.7525 131.373 34.4111 131.373 34.4111Z" fill="white" stroke="#EF8A66" stroke-width="0.75" stroke-linecap="round" stroke-linejoin="round"/>
<path d="M73.7612 12.4046C71.571 10.9992 69.0518 11.3879 68.3118 13.324C67.2428 16.1197 69.2536 18.0035 71.5112 18.7361L73.7612 12.4046Z" fill="#F9F9F9" stroke="#DDDDDD" stroke-linecap="round" stroke-linejoin="round"/>
<path d="M100.209 31.1517C103.782 32.6093 105.718 33.454 106.309 32.9906C106.899 32.5271 109.628 26.2629 109.336 25.5901C109.045 24.9173 103.446 21.8899 103.446 21.8899L100.209 31.1517Z" fill="#DDDDDD" stroke="#EDEDED" stroke-linecap="round" stroke-linejoin="round"/>
<path d="M80.377 57.7709C80.9376 55.3863 88.9585 53.4502 91.6645 53.0017V61.0525C91.6645 61.0525 83.1876 62.8167 80.377 57.7709Z" fill="#A7CAF0"/>
<path d="M83.7705 61.3513C85.1534 54.6834 86.0878 53.1286 85.6543 52.2914C85.2207 51.4541 82.4175 48.7182 82.0811 45.915C81.7447 43.1118 84.7124 38.4024 85.7589 36.9448C86.8054 35.4871 88.2631 34.3733 92.8454 35.0984C97.4277 35.8235 99.2218 36.4514 99.2741 38.7164C99.3264 40.9814 97.2483 56.2981 97.2483 56.2981C97.2483 56.2981 93.6228 67.7202 83.7705 61.3513Z" fill="#FEBD9D"/>
<path d="M89.4743 27.9374C88.5249 32.4225 86.0282 39.9351 85.0938 43.5381C84.1594 47.1412 84.7649 49.0847 87.7475 49.6902C90.7301 50.2957 92.5466 45.1378 93.1521 41.7516C93.7576 38.3653 95.3946 29.9557 95.3946 29.9557L89.4743 27.9374Z" fill="#F9F9F9" stroke="#DDDDDD" stroke-linecap="round" stroke-linejoin="round"/>
<path d="M76.1766 111.869C86.3429 120.271 92.7566 102.764 95.1113 87.4027C96.5776 77.1002 97.2921 66.7046 97.2492 56.2983C97.2492 56.2983 88.7723 58.6605 80.3777 57.7934C77.7913 70.2471 67.8866 105.022 76.1766 111.869Z" fill="#021730"/>
<path d="M90.043 105.754C92.4276 100.634 94.1244 93.8313 95.1112 87.4027C96.5774 77.1002 97.2919 66.7046 97.2491 56.2983" stroke="#83ADDF" stroke-width="0.75" stroke-linecap="round" stroke-linejoin="round"/>
<path d="M101.607 31.3319C100.441 31.7954 97.7873 31.9299 94.3263 31.5188C88.453 30.7845 82.7504 29.0421 77.4697 26.3683L84.6907 10.6704C90.1225 12.2386 95.2558 14.6991 99.8804 17.9513C102.497 19.7827 104.365 21.5169 105.016 22.6606C105.666 23.8044 104.358 30.233 101.607 31.3319Z" fill="#F9F9F9" stroke="#DDDDDD" stroke-linecap="round" stroke-linejoin="round"/>
<path d="M101.607 31.331C100.441 31.7945 97.7872 31.9291 94.3262 31.5179C97.8021 27.6009 100.261 23.3475 99.8803 17.9878C102.497 19.8192 104.365 21.5535 105.016 22.6972C105.666 23.8409 104.358 30.2322 101.607 31.331Z" fill="#F9F9F9" stroke="#EDEDED" stroke-linecap="round" stroke-linejoin="round"/>
<path d="M78.9419 27.5038C80.8705 26.9357 86.7983 15.379 85.9462 11.9853C85.094 8.59153 77.843 0.772461 77.843 0.772461C77.843 0.772461 68.5887 16.8143 66.8769 28.6774C66.8769 28.6924 76.1387 28.3335 78.9419 27.5038Z" fill="#DDDDDD" stroke="#EDEDED" stroke-linecap="round" stroke-linejoin="round"/>
<path d="M67.6547 6.28928L64.8066 1.59485" stroke="#DDDDDD" stroke-linecap="round" stroke-linejoin="round"/>
<path d="M56.5166 9.55664L61.5399 11.5899" stroke="#DDDDDD" stroke-linecap="round" stroke-linejoin="round"/>
<path d="M55.9258 19.6922L61.1211 18.7578" stroke="#DDDDDD" stroke-linecap="round" stroke-linejoin="round"/>
<path d="M81.2742 42.4467C83.3523 41.3778 89.0783 47.6794 85.5948 48.083C83.5317 48.3372 78.2168 44.0165 81.2742 42.4467Z" fill="#FEBD9D" stroke="#EF8A66" stroke-width="0.75" stroke-linecap="round" stroke-linejoin="round"/>
<path d="M81.7227 38.9485C83.8083 37.8796 89.9455 44.2335 86.4994 44.667C84.4288 44.9212 78.6654 40.5183 81.7227 38.9485Z" fill="#FEBD9D" stroke="#EF8A66" stroke-width="0.75" stroke-linecap="round" stroke-linejoin="round"/>
<path d="M82.5826 35.3976C84.8252 34.2464 91.4557 41.0862 87.7106 41.5497C85.4904 41.8188 79.2935 37.072 82.5826 35.3976Z" fill="#FEBD9D" stroke="#EF8A66" stroke-width="0.75" stroke-linecap="round" stroke-linejoin="round"/>
<path d="M83.838 32.2133C86.0133 30.9425 92.4868 38.0141 89.1977 39.4867C87.6504 40.1819 80.661 34.0821 83.838 32.2133Z" fill="#FEBD9D" stroke="#EF8A66" stroke-width="0.75" stroke-linecap="round" stroke-linejoin="round"/>
<path d="M93.1449 39.367C92.6141 38.6718 87.688 36.3321 88.2635 34.4633C88.8391 32.5945 94.7221 34.5156 97.473 35.3977C100.224 36.2797 99.5436 37.9915 98.8559 43.5382C98.8559 43.5382 96.4265 43.6802 93.1449 39.367Z" fill="#FEBD9D"/>
<path d="M93.1449 39.367C92.6141 38.6718 87.688 36.3321 88.2635 34.4633C88.8391 32.5945 94.7221 34.5156 97.473 35.3977C100.224 36.2797 99.5436 37.9915 98.8559 43.5381" stroke="#EF8A66" stroke-width="0.75" stroke-linecap="round" stroke-linejoin="round"/>
</svg>
