<svg width="174" height="332" viewBox="0 0 174 332" fill="none" xmlns="http://www.w3.org/2000/svg">
<path d="M80.102 305.099V328.19H117.478C117.478 328.19 119.721 326.044 112.918 322.733C106.497 319.608 102.625 316.558 99.403 309.225L80.102 305.099Z" fill="#683F1D"/>
<path d="M79.347 311.4H102.931L104.15 129.185L81.2383 130.919L79.347 311.4Z" fill="#021730"/>
<path d="M85.1478 153.875C88.3098 153.367 89.5133 152.223 89.5133 152.223" stroke="#83ADDF" stroke-width="0.75" stroke-linecap="round" stroke-linejoin="round"/>
<path d="M97.303 135.793C97.1162 141.721 99.2017 148.934 101.788 150.833" stroke="#83ADDF" stroke-width="0.75" stroke-linecap="round" stroke-linejoin="round"/>
<path d="M60.4799 314.734V330.985H97.8559C97.8559 330.985 100.098 328.84 93.2885 325.528C86.8748 322.404 83.0027 319.354 79.7808 312.021L60.4799 314.734Z" fill="#683F1D"/>
<path d="M97.8557 331C97.8557 331 100.098 328.855 93.2883 325.543C86.8746 322.419 83.0025 319.369 79.7806 312.036" stroke="#91613D" stroke-width="0.75" stroke-linecap="round" stroke-linejoin="round"/>
<path d="M48.5192 109.629C45.2525 153.868 46.9494 183.634 49.8647 221.391C52.78 259.148 57.4894 314.734 57.4894 314.734H82.1576L83.9666 125.611L48.5192 109.629Z" fill="#021730"/>
<path d="M82.1351 314.749L83.6153 156.035" stroke="#83ADDF" stroke-width="0.75" stroke-linecap="round" stroke-linejoin="round"/>
<path d="M173.392 87.9515C173.392 95.0978 170.716 101.459 166.545 105.586C163.919 108.278 160.439 109.975 156.7 110.385C156.446 110.385 156.192 110.422 155.953 110.429H155.347C147.767 110.429 141.272 104.629 138.588 96.4059C137.697 93.6689 137.248 90.8074 137.257 87.9291C137.257 81.007 139.769 74.825 143.716 70.6987C145.195 69.0793 146.99 67.7797 148.991 66.8798C150.991 65.9799 153.154 65.4988 155.347 65.4661C165.297 65.4586 173.392 75.5277 173.392 87.9515Z" fill="#044AED"/>
<path d="M166.539 105.593C163.913 108.286 160.433 109.982 156.694 110.392C156.44 110.392 156.186 110.429 155.946 110.437H155.341C147.761 110.437 141.265 104.636 138.581 96.4133C146.954 101.31 150.213 111.296 164.902 106.191C165.402 106.026 165.963 105.825 166.539 105.593Z" fill="#FCC71F"/>
<path d="M164.864 106.176C163.852 107.386 162.608 108.381 161.204 109.1C159.801 109.819 158.266 110.248 156.693 110.362C156.439 110.362 156.185 110.4 155.946 110.407H155.34C153.112 110.408 150.896 110.07 148.77 109.405C135.501 105.473 120.603 95.8079 110.967 89.7755L110.833 89.6932C108.59 88.2729 106.609 87.0694 105.025 86.1948C104.763 86.0379 104.509 85.9033 104.277 85.7762C100.726 83.8925 97.856 79.6765 96.0993 74.7578C95.7629 73.8084 95.4639 72.8292 95.2097 71.835C92.1075 59.5831 95.8825 45.1634 112.597 50.9044C115.737 51.9733 119.885 54.186 124.513 57.0714C131.139 61.2788 137.546 65.8222 143.709 70.6838C154.615 79.198 164.221 87.9814 166.329 91.7639C167.485 94.0557 167.961 96.6303 167.701 99.184C167.442 101.738 166.457 104.164 164.864 106.176Z" fill="#1E5EF3"/>
<path d="M166.539 105.593C163.913 108.286 160.433 109.982 156.694 110.392C156.44 110.392 156.186 110.429 155.946 110.437H155.341C153.113 110.438 150.897 110.1 148.77 109.435C135.502 105.503 120.604 95.8379 110.968 89.8054C110.968 89.8054 110.923 89.7605 110.833 89.7232C108.591 88.3029 106.61 87.0994 105.025 86.2248C104.764 86.0678 104.509 85.9332 104.278 85.8061C100.727 83.9224 97.8566 79.7064 96.0999 74.7877C95.7635 73.8383 95.4645 72.8591 95.2103 71.8649C100.682 70.9828 107.044 71.5061 114.115 74.5634C116.821 75.7371 121.874 77.8824 119.026 81.7023C115.446 86.5163 118.421 93.9167 129.17 93.9167C132.48 93.8641 135.74 94.7282 138.589 96.4135C146.961 101.31 150.22 111.297 164.909 106.191C165.402 106.027 165.963 105.825 166.539 105.593Z" fill="#1751DA"/>
<path d="M124.475 57.1088C121.865 56.9114 119.239 57.0876 116.679 57.632C112.194 58.5739 106.856 60.8987 103.552 66.4602C101.607 69.6861 99.0709 72.5163 96.077 74.8026C91.5545 62.0947 94.5072 44.7448 112.575 50.9417C115.699 52.0107 119.848 54.2233 124.475 57.1088Z" fill="#FFE05C"/>
<path d="M118.981 49.2074C117.575 48.8636 119.541 43.8626 123.301 39.1533C126.837 34.7279 129.072 32.306 130.149 33.7861C130.806 34.6981 129.827 48.8337 118.981 49.2074Z" fill="#0B3088"/>
<path d="M124.924 49.641C120.439 43.3842 117.448 38.2189 115.34 36.5295C113.232 34.8401 111.289 33.9879 111.065 32.0444C111.001 30.6171 111.335 29.2002 112.027 27.9507C112.72 26.7012 113.745 25.6679 114.989 24.9653C118.091 23.1638 131.876 40.0503 131.876 40.0503C131.876 40.0503 132.324 48.4524 124.924 49.641Z" fill="#B25E47"/>
<path d="M102.849 15.5691C105.525 12.9154 108.366 13.3265 114.346 18.918C120.326 24.5094 127.009 27.3874 128.407 31.88C129.902 36.7463 125.858 40.6035 120.438 39.9532C118.525 39.7289 115.542 39.3925 118.525 32.5602L110.496 25.8325C110.496 25.8325 108.254 29.1889 104.822 28.247C101.249 27.2304 96.6072 21.781 102.849 15.5691Z" fill="#DDDDDD" stroke="#EDEDED" stroke-linecap="round" stroke-linejoin="round"/>
<path d="M119.87 26.7145C121.163 27.3798 124.743 22.2294 123.039 21.2127C120.744 19.8597 118.569 26.0417 119.87 26.7145Z" fill="#B25E47" stroke="#934735" stroke-width="0.75" stroke-linecap="round" stroke-linejoin="round"/>
<path d="M118.525 32.5602C119.441 30.9658 120.88 29.7377 122.599 29.0842" stroke="#EDEDED" stroke-linecap="round" stroke-linejoin="round"/>
<path d="M110.496 25.8025C110.982 25.1064 111.319 24.3177 111.486 23.4856C111.654 22.6534 111.647 21.7957 111.468 20.9661" stroke="#EDEDED" stroke-linecap="round" stroke-linejoin="round"/>
<path d="M110.564 32.9189C111.625 35.3259 114.675 31.8275 115.931 28.4338C117.134 25.2269 116.843 24.5018 115.011 24.8382C113.18 25.1746 109.114 29.727 110.564 32.9189Z" fill="#B25E47" stroke="#934735" stroke-width="0.75" stroke-linecap="round" stroke-linejoin="round"/>
<path d="M113.21 22.3191C114.66 23.0666 118.697 17.3556 116.776 16.2418C114.197 14.7467 111.745 21.579 113.21 22.3191Z" fill="#B25E47" stroke="#934735" stroke-width="0.75" stroke-linecap="round" stroke-linejoin="round"/>
<path d="M115.505 23.5302C116.955 24.2777 120.992 18.5666 119.07 17.4528C116.492 15.9578 114.04 22.7901 115.505 23.5302Z" fill="#B25E47" stroke="#934735" stroke-width="0.75" stroke-linecap="round" stroke-linejoin="round"/>
<path d="M117.739 25.2268C119.137 25.9743 122.972 20.4726 121.155 19.4111C118.681 17.9684 116.341 24.5241 117.739 25.2268Z" fill="#B25E47" stroke="#934735" stroke-width="0.75" stroke-linecap="round" stroke-linejoin="round"/>
<path d="M118.981 49.2074C124.692 57.2432 140.39 80.6032 146.325 88.4372C154.025 98.6185 172.451 100.27 172.488 80.7976C172.488 71.1546 130.179 33.786 130.179 33.786C130.179 33.786 127.996 45.2156 118.981 49.2074Z" fill="#1E5EF3"/>
<path d="M124.415 51.607C131.435 49.2448 133.842 41.3136 133.842 41.3136" stroke="#1244B8" stroke-width="0.75" stroke-linecap="round" stroke-linejoin="round"/>
<path d="M118.981 49.2073C124.692 57.2431 140.39 80.6031 146.325 88.4372C148.093 90.7422 150.356 92.62 152.948 93.9314" stroke="#1244B8" stroke-width="0.75" stroke-linecap="round" stroke-linejoin="round"/>
<path d="M127.674 37.2247C138.139 51.6967 141.877 61.5864 139.388 65.4586C136.898 69.3307 131.284 67.2377 131.912 63.9635C132.66 59.9045 139.44 58.8729 136.644 69.7718C133.848 80.6706 126.179 81.62 124.788 78.6C122.912 74.4139 130.716 69.9587 131.516 80.9397C132.316 91.9208 120.042 94.7315 116.618 91.9731C113.194 89.2148 122.852 82.0162 122.703 94.0886C122.553 106.161 108.283 106.535 101.847 104.92" stroke="#EDEDED" stroke-width="2" stroke-linecap="round" stroke-linejoin="round"/>
<path d="M33.2403 115.288C33.273 118.13 32.6379 120.939 31.3863 123.49C30.1347 126.042 28.3014 128.263 26.0342 129.977C23.3939 131.915 20.2049 132.962 16.9294 132.967H16.8846C14.8265 132.959 12.7916 132.532 10.9044 131.711C4.87938 129.125 0.61853 122.741 0.61853 115.266C0.61853 115.116 0.61853 114.974 0.61853 114.839C0.653826 112.34 1.20292 109.874 2.23169 107.595C3.26047 105.316 4.74693 103.273 6.59869 101.593C8.51954 99.8778 10.8282 98.6542 13.3264 98.0278C14.5186 97.7245 15.7441 97.5714 16.9743 97.5718C23.4403 97.5718 29.0318 101.661 31.6631 107.581C32.2492 108.881 32.6783 110.246 32.9413 111.648C33.1604 112.848 33.2606 114.068 33.2403 115.288Z" fill="#FED81D"/>
<path d="M16.8846 132.982C14.8265 132.974 12.7916 132.547 10.9044 131.726C4.87938 129.14 0.61853 122.756 0.61853 115.281C0.61853 115.131 0.61853 114.989 0.61853 114.854C0.653826 112.355 1.20292 109.889 2.23169 107.61C3.26047 105.331 4.74693 103.288 6.59869 101.608C5.26811 118.839 7.13689 127.727 16.8846 132.982Z" fill="#1E5EF3"/>
<path d="M65.8623 63.8212C65.4138 65.249 64.8905 66.7066 64.3074 68.1867C63.7692 69.5472 63.1737 70.9226 62.5209 72.313C62.3116 72.7466 62.0948 73.1876 61.878 73.6212C61.1978 74.9966 60.4727 76.3795 59.6803 77.7625C59.4187 78.2259 59.1495 78.6894 58.8804 79.1528C54.229 86.8133 48.9563 94.0787 43.1153 100.876C41.7697 102.446 40.3943 103.993 38.9964 105.503L38.0097 106.557C36.9632 107.663 35.9092 108.74 34.8477 109.786C34.1973 110.422 33.5545 111.057 32.9041 111.663C24.9729 119.138 16.795 124.55 10.1571 124.699C9.53725 124.718 8.91703 124.683 8.30323 124.595C6.4861 124.399 4.7838 123.611 3.45929 122.352C1.68766 120.625 0.745794 118.024 0.641141 114.877C0.454261 108.956 3.19766 101.063 8.86387 93.1988L9.83563 91.8308C15.4047 83.8473 23.6274 70.3022 32.7472 59.2912C41.1194 49.1773 50.2541 41.1938 58.8207 41.5825C59.5069 41.6139 60.1894 41.7014 60.8614 41.8441C68.2992 43.384 69.3981 52.5037 65.8623 63.8212Z" fill="#2B61DD"/>
<path d="M9.81288 114.645C8.60573 116.063 7.97115 117.88 8.03337 119.741C8.09558 121.602 8.85013 123.373 10.1493 124.707C9.52946 124.725 8.90921 124.69 8.29541 124.602C6.47829 124.407 4.77599 123.619 3.45147 122.36C1.67985 120.633 0.737982 118.031 0.633329 114.884C0.446449 108.964 3.18985 101.07 8.85605 93.2063L9.82782 91.8384C11.5578 93.5424 12.7528 95.7143 13.2664 98.0876C13.7127 99.9817 13.8739 101.932 13.7448 103.873C13.5281 107.888 12.1377 111.917 9.81288 114.645Z" fill="#1653DF"/>
<path d="M64.3068 68.1868C62.7817 71.9759 60.9673 75.6421 58.8798 79.1529C54.2284 86.8133 48.9556 94.0787 43.1146 100.876C40.4609 103.978 37.6801 106.998 34.847 109.794" stroke="#F7AD2B" stroke-width="0.75" stroke-linecap="round" stroke-linejoin="round"/>
<path d="M65.8623 63.8213C61.8706 58.925 57.4452 56.2714 50.1644 56.234C45.6793 56.234 40.0579 57.1983 32.7845 59.2614C41.1568 49.1475 50.2915 41.164 58.8581 41.5527C59.5443 41.5841 60.2268 41.6716 60.8988 41.8143C68.2992 43.3841 69.3981 52.5038 65.8623 63.8213Z" fill="#FFE05C"/>
<path d="M116.679 57.6319C116.365 64.5614 113.405 77.7177 111.335 87.7644C111.2 88.4372 111.065 89.1174 110.931 89.8201C108.352 103.066 105.765 122.89 105.751 125.888C105.751 135.897 98.821 134.111 79.4453 133.543C69.9144 133.281 59.3743 132.93 51.5104 131.352C49.2918 130.949 47.1185 130.328 45.0219 129.498C41.2843 127.929 39.0866 125.716 39.4679 122.547C39.5172 122.152 39.5997 121.761 39.7145 121.38C41.5953 114.691 42.7359 107.815 43.1158 100.876C43.3924 97.1383 43.5419 93.2961 43.7213 89.3641C43.8633 86.0302 44.0277 82.6364 44.3043 79.0408C44.85 71.9095 47.2944 63.3429 50.135 56.234C53.3642 48.0113 57.0346 41.7022 58.724 41.5602H58.8286C62.0504 41.321 70.2134 42.4123 82.1662 42.6516C87.227 42.7606 92.2382 43.674 97.012 45.3576C99.105 46.1051 107.53 48.5495 112.553 50.949C113.883 51.4755 115.092 52.2693 116.104 53.2813C116.619 53.9541 116.776 55.4939 116.679 57.6319Z" fill="#1E5EF3"/>
<path d="M51.5104 131.352C49.2918 130.95 47.1185 130.329 45.0219 129.499C41.2843 127.929 39.0866 125.716 39.4679 122.547C39.5172 122.152 39.5997 121.762 39.7145 121.381C41.5953 114.691 42.7359 107.815 43.1158 100.876C43.3924 97.1385 43.5419 93.2962 43.7213 89.3642L60.2713 73.6215C64.8088 81.2163 56.0927 95.905 50.277 99.68C44.4613 103.455 44.865 110.893 57.1168 113.502C66.4085 115.468 56.7431 126.262 51.5104 131.352Z" fill="#1A58E9"/>
<path d="M124.475 57.1086C121.865 56.9113 119.24 57.0875 116.679 57.6319C112.194 58.5738 106.856 60.8985 103.552 66.4601C101.607 69.686 99.071 72.5162 96.0771 74.8024C88.273 80.7826 77.733 82.5692 71.0128 71.4012C69.4815 68.7586 67.768 66.2259 65.8848 63.8214C61.893 58.9251 57.4677 56.2714 50.1868 56.234C45.7017 56.234 40.0804 57.1983 32.807 59.2615C41.1792 49.1475 50.3139 41.164 58.8805 41.5527C62.1023 41.3135 70.2653 42.4049 82.2181 42.6441C87.2789 42.7532 92.2901 43.6666 97.0639 45.3501C99.1569 46.0976 107.581 48.542 112.605 50.9416C115.7 52.0105 119.848 54.2232 124.475 57.1086Z" fill="#1A56E1"/>
<path d="M91.8763 54.7911C91.8763 54.7911 94.1189 62.0047 94.986 62.6476L98.7236 63.2306C99.9515 61.0416 100.982 58.7476 101.803 56.3759L97.8565 50.6873L91.8763 54.7911Z" fill="#683F1D"/>
<path d="M95.0158 62.6477L86.3969 95.5386C86.3969 95.5386 87.3911 99.934 92.3172 106.617C92.3172 106.617 97.3032 100.113 98.3572 97.2953L98.7683 63.2308L95.0158 62.6477Z" fill="#683F1D"/>
<path d="M85.6267 40.0352C83.5785 40.095 79.3774 41.9712 79.3251 43.683C79.2728 45.3949 83.1375 58.94 89.2746 62.3113C89.2746 62.3113 91.6517 55.2322 97.8412 54.238L85.6267 40.0352Z" fill="white"/>
<path d="M97.8558 54.238C100.263 57.1967 102.262 60.4652 103.799 63.9558C103.799 63.9558 109.861 56.0246 109.031 49.6258C108.889 48.5569 103.567 46.0004 103.567 46.0004L97.8558 54.238Z" fill="white"/>
<path d="M110.93 89.8202C111.065 89.1176 111.199 88.4373 111.334 87.7645C112.178 83.6756 113.173 79.0634 114.07 74.5783C114.137 74.2494 114.197 73.9354 114.257 73.6215" stroke="#F7AD2B" stroke-width="0.75" stroke-linecap="round" stroke-linejoin="round"/>
<path d="M105.145 47.5553C105.145 47.5553 102.685 54.8063 97.6696 54.7913C89.5067 54.7913 84.4086 41.6723 84.4086 41.6723C86.9202 31.4986 86.6511 26.7743 86.6511 26.7743C86.3745 20.0466 101.826 11.1586 103.956 31.1398L104.143 33.786L104.801 43.0553L105.145 47.5553Z" fill="#B25E47"/>
<path d="M104.823 43.0553C99.5907 42.8759 94.7692 40.1399 94.515 33.786H104.165L104.823 43.0553Z" fill="#914839"/>
<path d="M103.53 7.30156C103.268 9.11056 100.943 10.2916 100.943 10.2916L95.6137 18.2976C95.6137 18.2976 90.7473 23.8591 85.567 23.291C84.803 23.2086 84.0593 22.9936 83.3693 22.6556C80.8127 21.4147 82.3003 19.0077 81.777 18.2228C81.2538 17.4379 79.998 17.3333 79.684 15.8831C79.37 14.4329 81.7023 14.5376 80.7081 12.9752C79.7139 11.4129 79.1458 10.1347 80.7828 9.00591C82.4199 7.87715 80.8427 7.42864 81.8892 5.61964C82.6965 4.2143 84.042 5.91865 84.5354 4.07227C85.0288 2.2259 86.5313 2.88371 87.6077 2.71178C88.9682 2.48752 87.8095 1.31392 89.6709 0.865408C90.5754 0.641152 90.553 1.71011 91.6144 0.999962C92.0672 0.653155 92.6069 0.438206 93.1742 0.378845C93.7414 0.319485 94.314 0.418019 94.8288 0.663574C96.1967 1.56807 96.1369 -0.248398 97.8188 0.304768C99.0298 0.708429 98.2599 1.62788 99.9269 1.88951C101.594 2.15114 101.541 3.13039 101.684 4.16945C101.698 4.31508 101.721 4.45982 101.751 4.60301C101.997 5.78409 103.784 5.49256 103.53 7.30156Z" fill="#604730"/>
<path d="M104.681 6.42687C104.412 8.37043 101.968 9.65616 101.968 9.65616L96.3615 18.1929C96.3615 18.1929 91.2709 24.173 85.8364 23.5451C85.9389 23.095 85.9078 22.6247 85.7467 22.1921C85.1935 21.3549 83.8854 21.2427 83.5565 19.6879C83.2276 18.1331 85.672 18.2377 84.6329 16.5707C83.5938 14.9038 82.9959 13.5358 84.7002 12.3173C86.4045 11.0989 84.7675 10.6429 85.8663 8.70681C86.711 7.21177 88.1089 9.02077 88.6471 7.04732C89.1853 5.07386 90.7327 5.77653 91.8614 5.59713C93.2892 5.35792 92.0707 4.10209 94.0292 3.6162C94.9786 3.377 94.9487 4.5207 96.0625 3.7657C97.1763 3.01071 98.5966 2.8313 99.4338 3.39942C100.869 4.3712 100.802 2.42017 102.596 3.01818L102.753 3.07799C102.753 3.23497 102.798 3.38447 102.828 3.54145C103.089 4.80476 104.951 4.51322 104.681 6.42687Z" fill="#473526"/>
<path d="M108.269 33.0464C106.826 37.1203 98.1176 41.7325 87.5402 28.4491C86.1797 28.9574 83.9072 28.5762 82.6589 26.2065C81.0965 23.2165 83.3317 18.8061 88.5344 20.9216C89.4912 21.3103 90.0294 18.9033 88.8633 17.2288C87.6971 15.5544 85.7237 11.4729 90.3583 8.49779C94.9929 5.52266 101.167 5.83662 103.53 9.54432C105.019 12.0107 106.204 14.6488 107.058 17.4008C107.454 18.6342 107.805 19.905 108.097 21.1907C109.069 25.4964 109.368 29.9292 108.269 33.0464Z" fill="#B25E47"/>
<path d="M98.4097 22.1922C98.163 23.1864 96.227 23.5602 94.0741 23.0294C91.9212 22.4987 90.3814 21.2727 90.6206 20.2785C90.8598 19.2843 92.8033 18.9181 94.9562 19.4488C97.109 19.9795 98.6489 21.2055 98.4097 22.1922Z" fill="#A0503D"/>
<path d="M108.119 21.168C107.088 21.7361 106.139 21.8707 105.668 21.3922C104.972 20.7045 105.593 18.9179 107.08 17.3781C107.477 18.6115 107.828 19.8822 108.119 21.168Z" fill="#A0503D"/>
<path d="M92.4295 15.3372C92.594 16.1968 98.1854 14.5373 97.6621 12.7657C96.9072 10.3587 92.123 13.7973 92.4295 15.3372Z" fill="#604730"/>
<path d="M100.57 12.736C100.689 13.8423 105.16 13.8572 105.145 13.1396C105.13 12.422 100.301 10.2318 100.57 12.736Z" fill="#604730"/>
<path d="M96.6674 17.9091C96.6674 18.1086 96.7266 18.3038 96.8374 18.4697C96.9483 18.6357 97.1059 18.765 97.2903 18.8414C97.4747 18.9178 97.6777 18.9378 97.8734 18.8988C98.0692 18.8599 98.249 18.7638 98.3901 18.6226C98.5312 18.4815 98.6273 18.3017 98.6663 18.1059C98.7052 17.9102 98.6853 17.7073 98.6089 17.5229C98.5325 17.3385 98.4031 17.1809 98.2372 17.07C98.0712 16.9591 97.8761 16.8999 97.6765 16.8999C97.544 16.8999 97.4128 16.926 97.2903 16.9767C97.1679 17.0274 97.0567 17.1018 96.963 17.1955C96.8693 17.2892 96.7949 17.4004 96.7442 17.5229C96.6935 17.6453 96.6674 17.7765 96.6674 17.9091Z" fill="#683F1D"/>
<path d="M102.491 16.8997C102.489 17.1011 102.547 17.2983 102.658 17.4665C102.769 17.6347 102.927 17.7661 103.113 17.8442C103.299 17.9223 103.503 17.9435 103.701 17.9052C103.899 17.8668 104.08 17.7705 104.223 17.6287C104.366 17.4868 104.464 17.3057 104.504 17.1083C104.544 16.9108 104.524 16.7061 104.447 16.5199C104.37 16.3337 104.24 16.1744 104.073 16.0624C103.905 15.9504 103.709 15.8905 103.507 15.8905C103.374 15.8895 103.242 15.9149 103.119 15.9652C102.995 16.0155 102.883 16.0896 102.789 16.1834C102.694 16.2773 102.619 16.3888 102.568 16.5118C102.517 16.6347 102.491 16.7665 102.491 16.8997Z" fill="#683F1D"/>
<path d="M84.4008 23.9488C85.1483 22.0127 88.0337 22.3715 88.9307 24.5169" stroke="#934735" stroke-width="0.75" stroke-linecap="round" stroke-linejoin="round"/>
<path d="M88.3552 23.5824C86.9872 22.7526 84.655 25.8773 88.3552 26.7668" stroke="#934735" stroke-width="0.75" stroke-linecap="round" stroke-linejoin="round"/>
<path d="M87.5405 28.4338C88.4389 28.1863 89.2832 27.7731 90.0298 27.2153" stroke="#934735" stroke-width="0.75" stroke-linecap="round" stroke-linejoin="round"/>
<path d="M100.286 15.173C100.286 18.9106 101.997 19.3292 103.717 20.002C105.152 20.5701 104.696 22.1548 104.36 22.6706" stroke="#934735" stroke-width="0.75" stroke-linecap="round" stroke-linejoin="round"/>
<path d="M98.4095 25.1074C101.34 25.1074 103.552 24.943 103.552 24.943C103.552 24.943 102.252 28.6357 100.562 28.4489C98.873 28.262 98.4095 25.1074 98.4095 25.1074Z" fill="white" stroke="#934735" stroke-width="0.75" stroke-linecap="round" stroke-linejoin="round"/>
<path d="M97.7479 120.964L62.3392 98.804L30.1736 150.2L65.5823 172.36L97.7479 120.964Z" fill="#EDEDED"/>
<path d="M92.3068 123.317L62.601 104.726L35.6145 147.847L65.3203 166.438L92.3068 123.317Z" fill="#F9F9F9"/>
<path d="M85.2828 110.825C85.6372 110.531 85.9403 110.18 86.1799 109.786C86.483 109.308 86.6878 108.774 86.7822 108.216C86.8767 107.657 86.8589 107.086 86.7299 106.534C86.6008 105.983 86.3632 105.463 86.0308 105.004C85.6985 104.546 85.278 104.158 84.7941 103.864C84.3102 103.57 83.7725 103.375 83.2124 103.291C82.6524 103.208 82.0813 103.236 81.5324 103.375C80.9835 103.515 80.4679 103.762 80.0158 104.103C79.5636 104.444 79.184 104.872 78.899 105.361C78.6643 105.753 78.4928 106.179 78.3907 106.624L73.016 103.35L68.9047 110.078L86.5536 120.827L90.6575 114.1L85.2828 110.825Z" fill="#DDDDDD" stroke="#EDEDED" stroke-linecap="round" stroke-linejoin="round"/>
<path d="M83.029 109.581C84.1318 109.311 84.807 108.199 84.5372 107.096C84.2673 105.993 83.1546 105.318 82.0518 105.588C80.949 105.857 80.2738 106.97 80.5437 108.073C80.8135 109.176 81.9263 109.851 83.029 109.581Z" fill="#F9F9F9"/>
<path d="M64.308 112.934L84.5583 125.604" stroke="#DDDDDD" stroke-linecap="round" stroke-linejoin="round"/>
<path d="M62.2895 116.507L82.5398 129.185" stroke="#DDDDDD" stroke-linecap="round" stroke-linejoin="round"/>
<path d="M60.2709 120.087L76.0511 129.962" stroke="#DDDDDD" stroke-linecap="round" stroke-linejoin="round"/>
<path d="M64.8462 135.793C74.3173 140.502 77.4269 142.132 78.0698 142.7C80.0059 144.419 79.7816 147.604 79.7816 147.604C79.7816 147.604 83.9453 149.727 84.3639 150.93C84.7825 152.134 82.6222 154.414 81.2393 154.294C81.2393 154.294 79.5798 156.155 78.0698 156.036C78.0698 156.036 77.5166 158.495 75.4759 158.615C75.4759 158.615 75.2367 160.723 72.2914 160.11C69.3462 159.497 56.8402 149.36 56.8402 149.36L64.8462 135.793Z" fill="#B25E47"/>
<path d="M65.9 136.316C65.0553 138.11 60.3384 146.841 58.3201 150.556C57.7669 151.588 57.4156 152.231 57.4156 152.231C57.4156 152.231 44.2593 146.998 32.5381 142.094C25.5638 139.171 19.0828 136.383 16.2272 134.896C14.3834 133.965 12.6074 132.906 10.9124 131.726C7.09254 129.043 4.41641 125.985 3.43716 122.352C2.45791 118.719 3.22037 114.294 6.36743 109.129C7.18789 107.804 8.26209 106.654 9.52826 105.746C10.7944 104.838 12.2276 104.189 13.7455 103.836C15.3777 103.434 17.0597 103.27 18.7389 103.35L19.2995 103.388C19.8976 103.388 20.4956 103.492 21.1085 103.589L21.6393 103.679L22.2448 103.799L23.2465 104.023H23.2838L23.822 104.165L24.0612 104.24C24.2706 104.3 24.4799 104.359 24.6742 104.427L25.3021 104.628L25.9226 104.838C26.1319 104.92 26.3412 104.995 26.5505 105.084C27.5919 105.492 28.61 105.956 29.6004 106.475C29.7798 106.557 29.9592 106.654 30.1311 106.751C30.3031 106.849 30.6469 107.028 30.8787 107.178L31.529 107.566H31.5738C32.426 108.082 33.2857 108.65 34.1453 109.271C34.3621 109.428 34.5863 109.585 34.7957 109.749C35.8796 110.556 36.9634 111.461 38.0399 112.44C50.6954 124.012 65.601 135.942 65.9822 135.942C66.0569 135.98 66.0121 136.077 65.9 136.316Z" fill="#1E5EF3"/>
<path d="M32.5381 142.094C25.5638 139.172 19.0828 136.383 16.2272 134.896C14.3834 133.965 12.6074 132.906 10.9124 131.726C7.09254 129.043 4.41641 125.985 3.43716 122.352C2.45791 118.719 3.22037 114.294 6.36743 109.129C7.18789 107.804 8.26209 106.654 9.52826 105.746C10.7944 104.838 12.2276 104.189 13.7455 103.836C13.5137 107.888 12.1234 111.917 9.79857 114.645C8.59142 116.063 7.95684 117.88 8.01905 119.741C8.08127 121.602 8.83579 123.373 10.1349 124.707C12.2056 126.95 15.7413 128.4 20.4582 127.779C22.4017 127.525 24.3079 128.422 26.0197 129.977C29.249 132.855 31.7757 138.005 32.5381 142.094Z" fill="#1653DF"/>
<path d="M18.1859 103.335C24.1661 103.418 31.3049 106.325 38.0924 112.485C50.8002 124.101 65.7506 136.077 66.0347 135.987" stroke="#2652BA" stroke-width="0.75" stroke-linecap="round" stroke-linejoin="round"/>
<path d="M59.6063 136.204C57.6702 140.001 54.0746 146.796 54.0746 146.796" stroke="white" stroke-width="0.75" stroke-linecap="round" stroke-linejoin="round"/>
<path d="M78.0697 142.7C80.0058 144.419 79.7815 147.604 79.7815 147.604C79.7815 147.604 83.9452 149.727 84.3638 150.93C84.7824 152.134 82.6221 154.413 81.2392 154.294C81.2392 154.294 79.5797 156.155 78.0697 156.036C78.0697 156.036 77.5165 158.495 75.4758 158.615C75.4758 158.615 75.2366 160.723 72.2913 160.11" stroke="#934735" stroke-width="0.75" stroke-linecap="round" stroke-linejoin="round"/>
<path d="M79.9978 147.716L76.1332 145.877" stroke="#934735" stroke-width="0.75" stroke-linecap="round" stroke-linejoin="round"/>
<path d="M81.2389 154.294C79.9636 153.77 78.7161 153.182 77.5013 152.53" stroke="#934735" stroke-width="0.75" stroke-linecap="round" stroke-linejoin="round"/>
<path d="M78.0701 156.035C77.2784 155.717 76.5259 155.308 75.8275 154.817" stroke="#934735" stroke-width="0.75" stroke-linecap="round" stroke-linejoin="round"/>
</svg>
