<svg width="146" height="130" viewBox="0 0 146 130" fill="none" xmlns="http://www.w3.org/2000/svg">
<ellipse cx="62.9624" cy="26.6692" rx="26.4624" ry="26.6692" fill="url(#paint0_linear_1_100)"/>
<g filter="url(#filter0_d_1_100)">
<rect x="68.4375" y="12.7648" width="61.1373" height="82.9709" rx="12" fill="white"/>
</g>
<path d="M8.47516 120.597C9.81892 119.445 10.3039 117.322 10.3039 116.315L16.8353 116.567C15.5813 116.97 15.509 120.345 15.7903 122.108C16.0717 123.871 19.0298 127.499 18.4028 127.902C17.6191 128.405 16.0516 127.65 14.4841 126.138C12.9166 124.627 8.99784 127.65 7.16909 129.161C5.70609 130.37 5.07921 129.917 3.77266 129.917C1.68266 129.329 -0.998782 127.812 0.376406 126.894L0.377532 126.893C3.77251 124.627 3.77318 124.627 8.47516 120.597Z" fill="#81592B"/>
<path d="M93.751 80.7332C92.9179 81.5839 92.536 84.9868 92.4492 86.5819H95.5735C95.7471 86.5819 97.1357 87.22 101.301 89.7721C105.467 92.3243 104.599 90.3038 103.645 88.9746C102.864 87.887 103.905 87.1136 107.029 86.5819C113.697 85.4473 108.331 83.3917 105.988 83.1259C104.481 82.9549 100.694 82.9486 98.9582 83.1259L93.751 80.7332Z" fill="#81592B"/>
<path d="M86.3719 75.1241C71.6251 70.94 53.6014 53.8553 46.5664 45.8359C49.3448 58.1788 61.3487 74.6882 66.8699 81.4001C73.4952 83.7013 87.2624 86.02 93.3178 86.8916C93.3178 83.9628 94.5645 80.0926 95.1878 78.5236H93.3178C96.0961 74.5488 89.8448 74.6011 86.3719 75.1241Z" fill="url(#paint1_linear_1_100)"/>
<path d="M37.3984 47.7383L36.5942 42.4522L34.9858 40.5047L31.501 39.9483L33.3774 33.5493L34.9858 30.2107L36.5942 24.6464L43.5639 23.2553C50.5337 29.9325 50.8017 34.384 51.3379 38.0008C51.7668 40.8942 45.9765 41.8031 43.0278 41.8958L47.5849 46.9037C46.9416 48.0165 43.3852 48.4802 41.6875 48.573V46.9037L37.3984 47.7383Z" fill="#81592B"/>
<path d="M40.7642 27.3527C41.856 27.1434 43.4936 26.0445 44.8584 24.213C45.6772 23.6898 45.1333 21.9633 41.8559 21.3349C37.4888 20.4975 34.0315 22.0326 32.8487 22.9048C32.9397 21.8582 32.3574 19.0847 29.3004 16.3636C26.2433 13.6425 23.8414 15.7531 23.0226 17.1485C18.6554 16.9392 17.5635 19.8522 17.5634 21.3349C15.1614 22.3815 15.6527 24.9107 16.1986 26.0445C17.2904 30.4402 23.2044 31.3647 25.752 31.0158C24.6602 36.458 27.1167 40.4351 28.4815 41.7433C33.7221 46.3483 36.6699 42.0921 37.4887 39.3885C36.1786 40.2257 34.9411 38.5163 34.4862 37.5569C32.7393 32.952 36.488 32.8473 38.5806 33.3706C37.2159 31.0158 39.3995 27.6144 40.7642 27.3527Z" fill="#150F0D"/>
<path d="M9.20028 116.454H19.0442C20.9599 98.2648 28.0013 84.9048 31.2826 80.4984C32.2581 82.1728 36.5918 83.5134 37.8688 90.493C39.1459 97.4726 39.1991 99.2556 37.8688 103.486C31.0579 119.771 27.4895 121.898 28.2876 128.331C34.8856 122.621 46.4131 130.176 53.1532 129.471C62.9439 129.471 67.8178 122.396 71.6312 120.809C70.567 110.763 70.2608 106.219 65.4719 93.0003C60.6829 79.7814 56.0255 75.4752 49.9063 65.4288C45.0109 57.3917 42.7228 49.0373 42.1907 45.8648C41.1265 45.6532 38.0226 46.6579 36.6036 47.1866C18.0864 63.8954 11.1513 94.5106 9.99844 107.73C5.95444 108.787 7.78134 111.519 9.20028 112.753V116.454Z" fill="#E6E6E6"/>
<path d="M95.1585 113.432C87.235 110.197 76.5503 96.2044 72.1984 89.6129L49.6885 44.2208L46.5371 45.569L59.5929 94.1071C63.7947 103.545 72.5586 122.241 73.9992 121.522C75.8 120.623 78.051 119.724 84.804 120.174C90.2063 120.533 93.958 115.829 95.1585 113.432Z" fill="#E6E6E6"/>
<rect x="74.8252" y="23.2501" width="40.6061" height="3.19119" rx="1.59559" fill="#1E5EF3"/>
<rect x="74.8252" y="31.9119" width="28.7437" height="3.19119" rx="1.59559" fill="#1E5EF3"/>
<rect x="74.8252" y="40.5737" width="30.5687" height="3.19119" rx="1.59559" fill="#1E5EF3"/>
<rect x="74.8252" y="49.2355" width="20.0749" height="3.19119" rx="1.59559" fill="#1E5EF3"/>
<ellipse cx="128.435" cy="86.0861" rx="17.5656" ry="17.5515" fill="url(#paint2_linear_1_100)"/>
<path d="M33.7627 77.8801L31.4814 80.6154C36.0439 84.9919 37.4887 88.2135 37.6408 89.2772C38.9183 93.8361 38.9335 98.6228 38.7814 100.446C40.2414 95.7052 39.3898 89.2012 38.7814 86.5419C38.0514 81.6184 35.1314 78.7159 33.7627 77.8801Z" fill="#C4C4C4"/>
<path d="M46.5381 45.7403L49.7318 44.3727C50.2034 50.2967 51.451 62.5429 52.9986 69.063L53.6099 71.2698C53.4019 70.6461 53.1978 69.902 52.9986 69.063L46.5381 45.7403Z" fill="#C4C4C4"/>
<defs>
<filter id="filter0_d_1_100" x="63.4375" y="8.76477" width="71.1373" height="92.9709" filterUnits="userSpaceOnUse" color-interpolation-filters="sRGB">
<feFlood flood-opacity="0" result="BackgroundImageFix"/>
<feColorMatrix in="SourceAlpha" type="matrix" values="0 0 0 0 0 0 0 0 0 0 0 0 0 0 0 0 0 0 127 0" result="hardAlpha"/>
<feOffset dy="1"/>
<feGaussianBlur stdDeviation="2.5"/>
<feComposite in2="hardAlpha" operator="out"/>
<feColorMatrix type="matrix" values="0 0 0 0 0 0 0 0 0 0 0 0 0 0 0 0 0 0 0.15 0"/>
<feBlend mode="normal" in2="BackgroundImageFix" result="effect1_dropShadow_1_100"/>
<feBlend mode="normal" in="SourceGraphic" in2="effect1_dropShadow_1_100" result="shape"/>
</filter>
<linearGradient id="paint0_linear_1_100" x1="62.9624" y1="0" x2="62.9624" y2="53.3384" gradientUnits="userSpaceOnUse">
<stop stop-color="white" stop-opacity="0.59"/>
<stop offset="1" stop-color="#1E5EF3" stop-opacity="0.04"/>
</linearGradient>
<linearGradient id="paint1_linear_1_100" x1="-23.0409" y1="11.549" x2="83.2124" y2="82.7455" gradientUnits="userSpaceOnUse">
<stop stop-color="#979797"/>
<stop offset="1" stop-color="#E5E5E5"/>
</linearGradient>
<linearGradient id="paint2_linear_1_100" x1="128.435" y1="68.5345" x2="128.435" y2="103.638" gradientUnits="userSpaceOnUse">
<stop stop-color="white" stop-opacity="0.59"/>
<stop offset="1" stop-color="#1E5EF3" stop-opacity="0.04"/>
</linearGradient>
</defs>
</svg>
